<svg width="44" height="45" viewBox="0 0 44 45" fill="none" xmlns="http://www.w3.org/2000/svg">
<path d="M22.0484 44.0129H21.9516C9.84761 44.0129 0 34.1624 0 22.0549V21.958C0 9.85049 9.84761 0 21.9516 0H22.0484C34.1524 0 44 9.85049 44 21.958V22.0549C44 34.1624 34.1524 44.0129 22.0484 44.0129ZM21.9516 1.48979C10.6682 1.48979 1.48935 10.6714 1.48935 21.958V22.0549C1.48935 33.3416 10.6682 42.5231 21.9516 42.5231H22.0484C33.3318 42.5231 42.5106 33.3416 42.5106 22.0549V21.958C42.5106 10.6714 33.3318 1.48979 22.0484 1.48979H21.9516Z" fill="white"/>
<path d="M26.1448 28.2253C20.7042 28.2253 16.2779 23.7961 16.2764 18.3539C16.2779 16.9744 17.4008 15.8525 18.777 15.8525C18.9185 15.8525 19.0585 15.8645 19.1925 15.8883C19.4874 15.9375 19.7674 16.0373 20.0251 16.1877C20.0623 16.2101 20.0876 16.2459 20.0936 16.2876L20.6685 19.9122C20.6759 19.9554 20.6625 19.9971 20.6342 20.0284C20.317 20.38 19.9119 20.6333 19.4606 20.7599L19.2432 20.821L19.3251 21.0311C20.0668 22.9201 21.577 24.4293 23.467 25.1742L23.677 25.2576L23.738 25.0401C23.8646 24.5887 24.1178 24.1835 24.4693 23.8661C24.4946 23.8423 24.5289 23.8304 24.5631 23.8304C24.5706 23.8304 24.578 23.8304 24.587 23.8319L28.2106 24.407C28.2538 24.4144 28.2895 24.4382 28.3118 24.4755C28.4608 24.7332 28.5606 25.0148 28.6112 25.3097C28.635 25.4408 28.6455 25.5794 28.6455 25.7239C28.6455 27.102 27.524 28.2238 26.1448 28.2253Z" fill="white"/>
<path d="M35.7928 20.812C35.4994 17.4957 33.9802 14.4193 31.5153 12.1503C29.0356 9.86798 25.8186 8.6106 22.4541 8.6106C15.0699 8.6106 9.06184 14.6204 9.06184 22.0068C9.06184 24.4858 9.74544 26.9008 11.0397 29.0044L8.15332 35.3956L17.3948 34.4108C19.0018 35.0693 20.7026 35.403 22.4526 35.403C22.9128 35.403 23.385 35.3792 23.8586 35.33C24.2756 35.2853 24.6971 35.2198 25.1111 35.1364C31.2949 33.8864 35.8091 28.3965 35.8449 22.0783V22.0068C35.8449 21.6046 35.827 21.2023 35.7913 20.8135L35.7928 20.812ZM17.7507 31.6055L12.6378 32.1508L14.1644 28.7675L13.859 28.3578C13.8367 28.328 13.8144 28.2982 13.789 28.2639C12.4635 26.433 11.7635 24.2698 11.7635 22.0083C11.7635 16.1117 16.5592 11.3146 22.4541 11.3146C27.9766 11.3146 32.6577 15.6245 33.1089 21.1263C33.1328 21.4213 33.1462 21.7178 33.1462 22.0098C33.1462 22.0932 33.1447 22.1751 33.1432 22.263C33.03 27.1957 29.5851 31.3851 24.7656 32.4518C24.3977 32.5337 24.0209 32.5963 23.6456 32.6365C23.2554 32.6812 22.8547 32.7035 22.4571 32.7035C21.0407 32.7035 19.6645 32.4294 18.3643 31.8871C18.2199 31.829 18.0784 31.7664 17.9458 31.7024L17.7522 31.6085L17.7507 31.6055Z" fill="white"/>
</svg>
