<svg width="44" height="45" viewBox="0 0 44 45" fill="none" xmlns="http://www.w3.org/2000/svg">
<path d="M22.0484 44.0129H21.9516C9.84762 44.0129 0 34.1624 0 22.0549V21.958C0 9.8505 9.84762 0 21.9516 0H22.0484C34.1524 0 44 9.8505 44 21.958V22.0549C44 34.1624 34.1524 44.0129 22.0484 44.0129ZM21.9516 1.48979C10.6682 1.48979 1.48935 10.6714 1.48935 21.958V22.0549C1.48935 33.3416 10.6682 42.5232 21.9516 42.5232H22.0484C33.3318 42.5232 42.5106 33.3416 42.5106 22.0549V21.958C42.5106 10.6714 33.3318 1.48979 22.0484 1.48979H21.9516Z" fill="white"/>
<path d="M28.5784 9.396H15.4244C11.7904 9.396 8.83398 12.3532 8.83398 15.9883V28.0258C8.83398 31.6609 11.7904 34.6182 15.4244 34.6182H28.5784C32.2124 34.6182 35.1687 31.6609 35.1687 28.0258V15.9883C35.1687 12.3532 32.2124 9.396 28.5784 9.396ZM11.1589 15.9883C11.1589 13.6359 13.0727 11.7215 15.4244 11.7215H28.5784C30.93 11.7215 32.8439 13.6359 32.8439 15.9883V28.0258C32.8439 30.3782 30.93 32.2926 28.5784 32.2926H15.4244C13.0727 32.2926 11.1589 30.3782 11.1589 28.0258V15.9883Z" fill="white"/>
<path d="M22.0013 28.1375C25.3806 28.1375 28.1315 25.3873 28.1315 22.0055C28.1315 18.6237 25.3821 15.8735 22.0013 15.8735C18.6204 15.8735 15.8711 18.6237 15.8711 22.0055C15.8711 25.3873 18.6204 28.1375 22.0013 28.1375ZM22.0013 18.2006C24.0998 18.2006 25.8066 19.9079 25.8066 22.007C25.8066 24.1061 24.0998 25.8134 22.0013 25.8134C19.9028 25.8134 18.196 24.1061 18.196 22.007C18.196 19.9079 19.9028 18.2006 22.0013 18.2006Z" fill="white"/>
<path d="M28.6991 16.8642C29.609 16.8642 30.3508 16.1238 30.3508 15.212C30.3508 14.3003 29.6105 13.5598 28.6991 13.5598C27.7876 13.5598 27.0474 14.3003 27.0474 15.212C27.0474 16.1238 27.7876 16.8642 28.6991 16.8642Z" fill="white"/>
</svg>
