<svg width="32" height="32" viewBox="0 0 32 32" fill="none" xmlns="http://www.w3.org/2000/svg">
<path fill-rule="evenodd" clip-rule="evenodd" d="M5.15958 0C5.61701 1.10682 6.09038 2.23247 6.56375 3.33929C7.25559 4.99953 7.68799 6.24941 7.88371 7.12471V11.9642H10.0412V7.12471L12.6538 0H10.4508L8.98292 4.69647L7.45131 0H5.15958ZM15.5456 12.0884C16.5401 12.0884 17.2957 11.7853 17.835 11.1773C18.247 10.7312 18.4381 10.0159 18.4381 9.06909V5.94439C18.4381 4.99757 18.247 4.3011 17.835 3.85498C17.2934 3.25074 16.5378 2.9458 15.5456 2.9458C14.5715 2.9458 13.816 3.24886 13.2812 3.85498C12.8692 4.30298 12.6758 4.99945 12.6758 5.94627V9.07098C12.6758 10.0178 12.8692 10.7143 13.2812 11.1792C13.816 11.7853 14.5715 12.0884 15.5456 12.0884ZM14.616 5.62461C14.616 4.80391 14.9187 4.39355 15.5446 4.39355C16.1932 4.39355 16.4731 4.80391 16.4731 5.62461V9.37426C16.4731 10.1968 16.1932 10.6241 15.5446 10.6241C14.9187 10.6241 14.616 10.195 14.616 9.37426V5.62461ZM20.0385 10.0895C20.0385 10.7313 20.1 11.1586 20.2092 11.4278C20.4027 11.8758 20.8555 12.0885 21.4814 12.0885C22.1983 12.0885 22.9311 11.7309 23.7071 10.9817V11.9643H25.6711V3.05322H23.7071V9.85605C23.2747 10.3737 22.8651 10.624 22.4782 10.624C22.2187 10.624 22.0685 10.4829 22.0253 10.2325C22.0025 10.1949 22.0025 9.98216 22.0025 9.60569V3.05322H20.0385V10.0895ZM27.6809 22.2326V23.0533H25.7373V22.2326C25.7373 21.4288 26.0628 21.0166 26.7091 21.0166C27.3554 21.0185 27.6809 21.4288 27.6809 22.2326ZM31.4356 16.5364C31.0464 15.1246 29.6423 14.0893 27.9809 13.9293C24.0074 13.5717 19.9906 13.5717 15.9966 13.5717C12.0026 13.5717 7.98578 13.5717 4.03499 13.9293C2.35545 14.0893 0.971766 15.1246 0.562122 16.5364C0.022758 18.5355 0 20.7152 0 22.7858C0 24.8395 0 27.0343 0.562122 29.0352C0.951284 30.447 2.35545 31.4823 4.01678 31.6253C7.98805 31.9999 12.0048 31.9999 15.9989 31.9999C19.9929 31.9999 24.0097 31.9999 27.9832 31.6253C29.6423 31.4823 31.026 30.447 31.4379 29.0352C31.9772 27.0362 32 24.8395 32 22.7858L32 22.7595C31.9977 20.6967 31.9953 18.527 31.4356 16.5364ZM6.82549 18.3397H9.13315V16.6606H2.39678V18.3397H4.66575V28.5006H6.82549V18.3397ZM14.9654 28.501H13.0424V27.5372C12.2641 28.2694 11.5312 28.6271 10.8394 28.6271C10.2158 28.6271 9.76068 28.4125 9.58772 27.9664C9.47848 27.6991 9.41475 27.2868 9.41475 26.6638V19.6821H11.3378V26.1819C11.3378 26.5584 11.3378 26.7541 11.3583 26.8087C11.4038 27.0572 11.554 27.1833 11.8112 27.1833C12.2026 27.1833 12.6123 26.9348 13.0424 26.4341V19.684H14.9654V28.501ZM22.1072 27.6423C22.2574 27.2677 22.3029 26.6804 22.3029 25.8578V22.3397C22.3029 21.5171 22.2574 20.9298 22.1072 20.5722C21.8705 19.9115 21.3288 19.5726 20.5733 19.5726C19.861 19.5726 19.1896 19.8926 18.5637 20.5364V16.6606H16.6452V28.5006H18.5637V27.6423C19.2123 28.303 19.8837 28.6249 20.5733 28.6249C21.3288 28.6249 21.8705 28.2861 22.1072 27.6423ZM29.6042 24.3933H25.7399V25.9463C25.7399 26.7688 26.0654 27.1773 26.7345 27.1773C27.2101 27.1773 27.49 26.9646 27.5993 26.5354C27.6197 26.447 27.6425 26.0893 27.6425 25.4456H29.6065V25.679C29.6065 26.1966 29.6065 26.5543 29.5633 26.7143C29.5178 27.07 29.3448 27.3919 29.1104 27.678C28.5892 28.303 27.7927 28.6248 26.78 28.6248C25.765 28.6248 25.0071 28.3218 24.4473 27.7138C24.0376 27.2846 23.8214 26.5881 23.8214 25.6413V22.5524C23.8214 21.6056 24.0171 20.9279 24.4268 20.4799C24.9889 19.8719 25.7445 19.5688 26.739 19.5688C27.713 19.5688 28.4663 19.8719 29.0262 20.4799C29.4176 20.926 29.6111 21.6037 29.6111 22.5524V24.3933H29.6042ZM20.3819 25.9823V22.2138C20.3819 21.4289 20.0997 21.0186 19.5399 21.0186C19.2144 21.0186 18.8913 21.1428 18.5658 21.412V26.7861C18.8913 27.0534 19.2144 27.1776 19.5399 27.1776C20.0997 27.1776 20.3819 26.7861 20.3819 25.9823Z" fill="#4860EF"/>
</svg>
