<svg width="24" height="23" viewBox="0 0 24 23" fill="none" xmlns="http://www.w3.org/2000/svg">
<path d="M11.2045 1.04437C11.6047 0.518966 12.3953 0.518965 12.7955 1.04437L15.2319 4.24296C15.4258 4.49749 15.7298 4.64388 16.0496 4.63677L20.0695 4.54733C20.7298 4.53263 21.2227 5.15075 21.0614 5.79123L20.0798 9.69036C20.0016 10.0006 20.0767 10.3296 20.2817 10.5752L22.858 13.6623C23.2811 14.1694 23.1052 14.9402 22.5039 15.2134L18.8434 16.877C18.5521 17.0094 18.3417 17.2731 18.2775 17.5866L17.4702 21.5255C17.3376 22.1725 16.6253 22.5156 16.0367 22.2158L12.4538 20.3911C12.1687 20.2459 11.8313 20.2459 11.5462 20.3911L7.96326 22.2158C7.37472 22.5156 6.66241 22.1725 6.5298 21.5255L5.72251 17.5866C5.65827 17.2731 5.44791 17.0094 5.15661 16.877L1.49607 15.2134C0.894782 14.9402 0.718856 14.1694 1.14204 13.6623L3.71828 10.5752C3.92329 10.3296 3.99837 10.0006 3.92025 9.69036L2.93856 5.79123C2.7773 5.15075 3.27023 4.53263 3.93054 4.54733L7.95035 4.63677C8.27024 4.64388 8.57422 4.49749 8.7681 4.24296L11.2045 1.04437Z" fill="white"/>
</svg>
