<svg width="30" height="29" viewBox="0 0 30 29" fill="none" xmlns="http://www.w3.org/2000/svg">
<path d="M14.2045 1.04437C14.6047 0.518965 15.3953 0.518965 15.7955 1.04437L19.117 5.40498C19.3109 5.65952 19.6149 5.80591 19.9348 5.79879L25.415 5.67686C26.0753 5.66216 26.5682 6.28028 26.4069 6.92076L25.0686 12.2364C24.9905 12.5467 25.0656 12.8756 25.2706 13.1213L28.7827 17.3299C29.2059 17.8369 29.03 18.6077 28.4287 18.881L23.4383 21.1489C23.147 21.2813 22.9367 21.5451 22.8724 21.8585L21.7718 27.2284C21.6392 27.8754 20.9269 28.2185 20.3384 27.9187L15.4538 25.4311C15.1687 25.2859 14.8313 25.2859 14.5462 25.4311L9.66161 27.9187C9.07307 28.2185 8.36076 27.8754 8.22815 27.2284L7.12757 21.8585C7.06333 21.5451 6.85297 21.2813 6.56167 21.1489L1.57129 18.881C0.969997 18.6077 0.794072 17.8369 1.21725 17.3299L4.72943 13.1213C4.93444 12.8756 5.00951 12.5467 4.93139 12.2364L3.59306 6.92076C3.43181 6.28028 3.92474 5.66216 4.58504 5.67686L10.0652 5.79879C10.3851 5.80591 10.6891 5.65952 10.883 5.40498L14.2045 1.04437Z" fill="#4860EF"/>
</svg>
