<svg width="44" height="45" viewBox="0 0 44 45" fill="none" xmlns="http://www.w3.org/2000/svg">
<path d="M22.0484 44.013H21.9516C9.8476 44.013 0 34.1625 0 22.0549V21.958C0 9.8505 9.8476 0 21.9516 0H22.0484C34.1524 0 44 9.8505 44 21.958V22.0549C44 34.1625 34.1524 44.013 22.0484 44.013ZM21.9516 1.48979C10.6682 1.48979 1.48935 10.6714 1.48935 21.958V22.0549C1.48935 33.3416 10.6682 42.5232 21.9516 42.5232H22.0484C33.3318 42.5232 42.5106 33.3416 42.5106 22.0549V21.958C42.5106 10.6714 33.3318 1.48979 22.0484 1.48979H21.9516Z" fill="white"/>
<path d="M8.79629 21.28C8.85586 21.2502 8.91546 21.2219 8.97355 21.1951C9.98333 20.7273 11.0065 20.2893 12.0282 19.8513C12.0833 19.8513 12.1756 19.7872 12.2278 19.7664C12.3067 19.7321 12.3857 19.6993 12.4646 19.6651C12.6165 19.5995 12.7684 19.5354 12.9188 19.4699C13.2227 19.3403 13.525 19.2107 13.8288 19.0811C14.435 18.8219 15.0412 18.5626 15.6473 18.3019C16.8597 17.7835 18.0735 17.2635 19.2858 16.7451C20.4982 16.2266 21.712 15.7067 22.9243 15.1882C24.1367 14.6698 25.3505 14.1499 26.5628 13.6314C27.7751 13.113 28.989 12.593 30.2013 12.0746C30.4709 11.9584 30.7628 11.7856 31.0517 11.7349C31.2945 11.6917 31.5313 11.6083 31.7755 11.5621C32.2387 11.4742 32.7496 11.4384 33.1934 11.6306C33.3468 11.6977 33.4883 11.7915 33.606 11.9092C34.1689 12.4664 34.09 13.3811 33.9709 14.1648C33.1413 19.6263 32.3117 25.0894 31.4807 30.551C31.3675 31.3004 31.2126 32.1227 30.6213 32.5965C30.1209 32.9972 29.409 33.0419 28.7909 32.8721C28.1728 32.7007 27.6277 32.3417 27.093 31.9886C24.8754 30.5197 22.6562 29.0508 20.4386 27.5818C19.9114 27.2332 19.3246 26.7773 19.3305 26.1442C19.3335 25.7628 19.5614 25.4231 19.7937 25.1207C21.7209 22.6059 24.5015 20.8778 26.5703 18.4792C26.8622 18.141 27.0915 17.5302 26.6909 17.335C26.4526 17.2188 26.1785 17.3767 25.9611 17.5272C23.2266 19.4267 20.4937 21.3277 17.7593 23.2272C16.8671 23.8469 15.9318 24.4845 14.8565 24.6365C13.8944 24.7736 12.9263 24.5054 11.9955 24.2313C11.215 24.0018 10.4361 23.7665 9.66012 23.5236C9.24757 23.3955 8.82161 23.2569 8.50289 22.9664C8.18417 22.6759 8.001 22.1873 8.19313 21.8C8.31377 21.5571 8.5476 21.4037 8.79334 21.2785L8.79629 21.28Z" fill="white"/>
</svg>
