<svg width="32" height="26" viewBox="0 0 32 26" fill="none" xmlns="http://www.w3.org/2000/svg">
<path d="M28.7115 6.47976C28.7322 6.76411 28.7322 7.04845 28.7322 7.33469C28.7322 16.0064 22.1327 26 10.0725 26C6.35671 26 2.90447 24.9229 0 23.0548C0.528941 23.1151 1.03718 23.1339 1.58494 23.1339C4.65129 23.1339 7.47106 22.0982 9.72612 20.3319C6.84235 20.2716 4.42729 18.381 3.59529 15.7804C4 15.8407 4.40659 15.8821 4.83012 15.8821C5.42118 15.8821 6.01035 15.8011 6.55812 15.6599C3.55388 15.0498 1.29882 12.4096 1.29882 9.22155C1.29882 9.20084 1.29882 9.15941 1.29882 9.14058C2.17224 9.62642 3.18682 9.93148 4.26353 9.97291C2.49788 8.79409 1.34024 6.78294 1.34024 4.51003C1.34024 3.29166 1.66588 2.1731 2.23435 1.19765C5.46259 5.18042 10.3153 7.78098 15.7572 8.06345C15.6536 7.57572 15.5934 7.06728 15.5934 6.55885C15.5934 2.94517 18.5186 0 22.1515 0C24.0395 0 25.7449 0.790903 26.944 2.07141C28.4254 1.78706 29.8447 1.23908 31.1059 0.487724C30.6184 2.01115 29.5831 3.29166 28.2221 4.1014C29.5435 3.96017 30.8216 3.59484 32 3.08641C31.1059 4.38575 29.9896 5.54574 28.7115 6.47976Z" fill="#4860EF"/>
</svg>
